<svg xmlns="http://www.w3.org/2000/svg" xmlns:xlink="http://www.w3.org/1999/xlink" width="17px" height="27px" viewBox="0 0 17 27" version="1.1">
    <!-- Generator: Sketch 59.1 (86144) - https://sketch.com -->
    <title>demo_hand</title>
    <desc>Created with Sketch.</desc>
    <g id="Animations" stroke="none" stroke-width="1" fill="none" fill-rule="evenodd">
        <g id="kts_demo_elimination_bg" transform="translate(-6.000000, -47.000000)" fill="#7E8182" fill-rule="nonzero">
            <g id="animation" transform="translate(-15.999998, 16.950001)">
                <g id="demo_hand" transform="translate(22.494381, 30.528089)">
                    <path d="M4.75074441,24.985604 C4.99031366,20.5241393 2.72649157,18.5238609 2.39076105,16.6966359 C2.03105326,14.7389137 2.03105326,12.3049915 0.675440223,10.7183836 C-1.3995884,8.74914436 1.75445511,6.36964696 4.09651147,11.1651221 C4.16148832,11.3747967 4.30378765,11.3238357 4.31956122,11.2656414 L7.08855221,1.04984468 C7.30804239,0.240067013 7.98402311,-0.158439401 8.80317161,0.0585398708 C9.62232011,0.275519142 9.77643465,1.27197337 9.55694447,2.08175103 L7.76781312,10.5356242 C7.74363392,10.649874 7.81181982,10.7634379 7.92485395,10.7971763 C8.03365499,10.8296513 8.14848646,10.7687857 8.18133721,10.6612294 C8.18161435,10.660322 8.18188507,10.6594127 8.18214935,10.6585016 L9.44555874,6.87230787 C9.68562925,6.04466015 10.4058536,5.71489634 11.0658309,5.80343251 C12.1470754,5.94848181 12.3879209,7.18444112 12.1470754,7.7317347 L11.97306,8.33165618 C12.2807816,7.78989994 12.7578087,7.48948774 13.4011646,7.63631901 C14.1828088,7.81471142 14.6701675,8.58572611 14.4897107,9.35842852 L14.2472136,10.3967832 C14.4707547,10.2476411 14.7434077,10.1664768 15.033475,10.1815046 C15.7430253,10.2182652 16.3643167,10.8568051 16.0699375,12.3049915 C14.9826037,16.3799464 15.2048196,16.9543078 14.6531181,19.2517536 C13.9421562,22.6639577 12.8756606,22.161632 12.9026544,25.3286283 C12.9044246,25.5363172 12.7355462,25.7061009 12.525454,25.7078642 C12.5199592,25.7078642 12.514464,25.7078642 12.5089723,25.7078642 L5.12386863,25.4242277 C4.90892038,25.4168075 4.74075534,25.2385355 4.74826149,25.0260462 C4.7484087,25.0218789 4.74862439,25.0177142 4.74890848,25.0135538 C4.74995501,24.9982227 4.7505671,24.9889061 4.75074441,24.985604 Z" id="hand"/>
                </g>
            </g>
        </g>
    </g>
</svg>